<?xml version="1.0" standalone="no"?>
<!DOCTYPE svg PUBLIC "-//W3C//DTD SVG 20010904//EN"
 "http://www.w3.org/TR/2001/REC-SVG-20010904/DTD/svg10.dtd">
<svg version="1.0" xmlns="http://www.w3.org/2000/svg"
 width="1274.000000pt" height="312.000000pt" viewBox="0 0 1274.000000 312.000000"
 preserveAspectRatio="xMidYMid meet">

<g transform="translate(0.000000,312.000000) scale(0.100000,-0.100000)"
fill="#000000" stroke="none">
<path d="M3537 2483 c-14 -28 -249 -578 -347 -813 -29 -69 -81 -192 -116 -275
-35 -82 -60 -153 -55 -158 4 -4 34 -7 66 -5 l58 3 39 90 c39 91 193 450 351
820 47 110 101 234 121 277 19 42 32 79 29 82 -4 3 -35 6 -69 6 -59 0 -64 -2
-77 -27z"/>
<path d="M2813 2453 c-22 -4 -23 -7 -25 -181 l-3 -177 -132 -100 -133 -100 0
-95 0 -95 57 -40 c31 -22 92 -66 135 -97 l78 -58 0 -180 0 -180 65 0 65 0 0
219 0 219 -98 65 c-113 76 -182 133 -182 150 0 7 32 37 71 67 39 30 102 79
140 108 l69 53 -2 212 -3 212 -40 1 c-22 1 -50 0 -62 -3z"/>
<path d="M3877 2454 c-4 -4 -7 -103 -7 -219 l0 -212 43 -28 c94 -62 237 -177
237 -190 0 -7 -63 -60 -140 -117 l-140 -103 0 -217 0 -218 65 0 65 0 0 180 0
180 135 101 135 101 0 93 0 92 -132 99 -133 99 -5 180 -5 180 -55 3 c-31 2
-59 0 -63 -4z"/>
<path d="M9867 2443 c-4 -3 -7 -99 -7 -212 l0 -207 138 -99 c97 -71 137 -106
137 -120 0 -14 -41 -51 -137 -123 l-138 -104 0 -214 0 -214 65 0 65 0 0 178 0
178 138 100 137 101 0 93 0 94 -85 63 c-47 35 -109 82 -137 104 l-53 40 0 175
0 174 -58 0 c-32 0 -62 -3 -65 -7z"/>
<path d="M4862 2303 c-16 -14 -182 -351 -182 -369 0 -3 -54 -124 -120 -269
-66 -145 -120 -271 -120 -280 0 -13 13 -15 83 -13 l82 3 57 118 58 117 227 -2
228 -3 57 -117 58 -118 80 0 c61 0 82 4 86 14 6 16 -401 916 -420 928 -6 4
-43 8 -82 8 -54 0 -77 -4 -92 -17z m165 -370 l71 -158 -146 -3 c-79 -1 -147
-1 -149 1 -2 3 24 67 57 143 72 162 78 174 88 174 4 0 40 -71 79 -157z"/>
<path d="M5712 2312 c-10 -7 -12 -108 -10 -473 l3 -464 80 0 80 0 3 303 c1
166 6 302 10 302 7 0 167 -244 227 -347 24 -40 65 -55 125 -45 43 7 47 10 92
87 26 44 80 133 120 198 l73 118 5 -308 c3 -169 7 -309 8 -310 7 -9 150 -1
160 9 9 9 12 124 12 458 0 245 -4 450 -8 456 -4 6 -40 14 -81 17 -71 6 -75 5
-99 -21 -20 -22 -159 -244 -275 -437 -22 -38 -30 -45 -42 -35 -12 10 -128 190
-268 415 -28 45 -52 72 -68 76 -34 10 -132 10 -147 1z"/>
<path d="M7057 2308 c-16 -12 -17 -44 -15 -473 l3 -460 73 -3 c46 -2 79 2 88
9 11 9 14 47 14 180 l0 169 89 0 89 0 149 -177 149 -178 97 -3 c89 -2 97 -1
97 16 0 10 -34 58 -75 106 -111 130 -198 237 -194 240 2 1 31 10 63 20 86 26
156 98 180 185 41 148 -22 284 -163 350 -56 26 -57 26 -341 29 -223 2 -289 0
-303 -10z m572 -166 c47 -23 73 -62 75 -109 1 -56 -20 -97 -63 -121 -36 -20
-53 -22 -230 -22 l-191 0 0 135 0 135 188 0 c158 0 192 -3 221 -18z"/>
<path d="M8126 2305 c-11 -12 -14 -29 -10 -68 8 -79 5 -76 91 -79 l78 -3 0
-315 0 -315 -80 -5 -80 -5 0 -70 0 -70 255 0 255 0 0 70 0 70 -65 3 c-36 1
-75 4 -88 7 l-22 5 2 313 3 312 85 5 85 5 3 63 c2 38 -2 69 -9 78 -18 22 -481
21 -503 -1z"/>
<path d="M8857 2313 c-15 -4 -17 -14 -15 -76 l3 -72 162 -3 163 -2 2 -393 3
-392 80 0 80 0 5 390 5 390 160 5 160 5 3 63 c2 38 -2 69 -9 78 -9 12 -76 14
-398 13 -212 -1 -394 -3 -404 -6z"/>
<path d="M3050 2077 c0 -24 5 -48 10 -53 7 -7 2 -34 -18 -85 -25 -66 -31 -75
-57 -79 -28 -5 -30 -8 -33 -58 l-3 -52 55 0 56 0 0 45 c0 55 54 204 81 224 14
10 19 26 19 57 l0 44 -55 0 -55 0 0 -43z"/>
<path d="M3634 2106 c-3 -8 -4 -31 -2 -52 2 -31 8 -40 24 -42 16 -2 29 -23 54
-83 19 -46 29 -84 24 -89 -14 -13 -146 -50 -156 -44 -5 4 -30 3 -54 -1 l-45
-6 3 -47 c3 -46 4 -47 38 -50 26 -2 48 -16 83 -50 26 -26 46 -53 45 -61 -4
-19 -150 -72 -165 -59 -6 5 -29 8 -50 6 l-38 -3 -3 -52 -3 -53 39 0 c34 0 45
-6 86 -50 34 -36 46 -57 46 -80 0 -29 1 -30 50 -30 l50 0 0 50 c0 49 -1 50
-30 50 -23 0 -44 12 -80 46 -28 26 -50 50 -50 54 0 18 154 72 168 58 5 -5 29
-8 53 -6 l44 3 3 49 c4 56 -5 66 -57 66 -27 0 -44 10 -84 50 -39 39 -47 53
-38 63 16 20 116 41 196 42 l70 0 0 50 0 50 -39 5 c-37 5 -41 8 -62 60 -14 34
-19 59 -13 65 10 10 12 65 3 89 -8 21 -102 23 -110 2z"/>
<path d="M5070 853 c-29 -11 -50 -36 -50 -60 0 -38 32 -61 97 -68 71 -8 103
-20 103 -39 0 -50 -140 -46 -153 3 -6 25 -35 28 -44 5 -26 -69 121 -109 218
-58 23 12 29 21 29 49 0 44 -28 64 -101 72 -30 3 -65 12 -78 20 -22 14 -22 16
-7 31 24 24 91 20 120 -7 28 -26 56 -27 56 -3 0 36 -37 56 -108 59 -37 1 -74
0 -82 -4z"/>
<path d="M5661 846 c-9 -11 -101 -212 -101 -221 0 -3 11 -5 25 -5 17 0 29 8
37 25 10 23 17 25 75 25 59 0 64 -2 73 -25 7 -19 17 -25 41 -25 17 0 29 4 27
9 -1 4 -25 56 -53 114 -47 99 -52 105 -83 109 -18 2 -37 -1 -41 -6z m52 -63
c8 -16 18 -38 21 -50 7 -21 4 -23 -33 -23 -29 0 -41 4 -41 15 0 14 31 85 37
85 1 0 9 -12 16 -27z"/>
<path d="M5950 853 c-56 -21 -88 -96 -68 -158 20 -58 55 -79 131 -78 89 1 137
28 137 79 0 22 -47 17 -53 -6 -11 -44 -115 -51 -149 -9 -21 24 -23 70 -7 102
17 31 28 37 77 37 36 0 49 -5 72 -30 30 -32 60 -40 60 -14 0 29 -21 56 -55 70
-34 14 -115 18 -145 7z"/>
<path d="M6419 850 c-22 -4 -56 -23 -85 -48 -26 -22 -52 -39 -56 -36 -4 3 -8
23 -8 45 0 35 -3 39 -25 39 l-26 0 3 -112 c3 -109 4 -113 26 -116 20 -3 22 1
22 36 0 68 21 72 83 13 41 -39 61 -51 85 -51 18 0 32 3 32 7 0 3 -27 31 -60
60 -33 30 -60 59 -60 64 0 5 27 29 60 53 33 25 57 46 53 49 -5 2 -24 1 -44 -3z"/>
<path d="M6662 852 c-9 -6 -12 -37 -10 -118 l3 -109 101 0 c86 0 105 3 123 19
48 44 48 152 0 188 -19 14 -48 20 -115 24 -49 3 -95 1 -102 -4z m176 -48 c28
-19 31 -97 5 -126 -20 -22 -128 -26 -135 -5 -3 6 -3 42 0 80 l4 67 52 0 c30 0
61 -6 74 -16z"/>
<path d="M8144 846 c-45 -20 -64 -52 -64 -109 0 -58 12 -82 48 -101 67 -34
163 -27 208 15 54 51 36 167 -30 194 -44 19 -121 19 -162 1z m146 -46 c24 -24
27 -86 5 -117 -30 -43 -131 -38 -155 8 -17 31 -12 87 10 109 15 15 33 20 70
20 37 0 55 -5 70 -20z"/>
<path d="M8503 852 l-63 -3 0 -114 0 -115 24 0 c22 0 25 5 28 43 l3 42 80 5
c76 5 81 6 93 33 14 28 11 58 -7 86 -11 17 -77 27 -158 23z m111 -48 c18 -18
19 -24 7 -43 -6 -9 -30 -14 -67 -15 l-59 -1 -3 38 -3 37 55 0 c36 0 60 -5 70
-16z"/>
<path d="M8743 844 c-2 -6 -2 -57 -1 -115 l3 -104 105 0 c91 0 105 2 108 17 3
15 -8 18 -80 20 -81 3 -83 4 -83 28 0 24 3 25 75 30 41 3 74 8 73 13 -2 4 -3
11 -3 17 0 5 -33 10 -72 12 -70 3 -73 4 -73 28 0 24 3 25 79 30 51 3 81 10 84
18 5 15 0 15 -117 16 -58 1 -95 -3 -98 -10z"/>
<path d="M9073 853 l-53 -4 0 -115 0 -114 25 0 c23 0 25 4 25 45 0 44 0 45 34
45 28 0 40 -8 70 -45 30 -35 44 -45 68 -45 l30 0 -36 45 -37 45 26 10 c24 9
45 44 45 75 0 7 -8 22 -17 34 -20 24 -82 32 -180 24z m136 -50 c6 -11 6 -24 0
-35 -8 -14 -23 -18 -74 -18 -65 0 -65 0 -65 28 0 39 5 42 71 42 45 0 60 -4 68
-17z"/>
<path d="M3732 738 c3 -107 4 -113 24 -116 19 -3 23 3 29 47 l7 51 64 0 c57 0
64 2 64 20 0 17 -8 19 -67 22 -65 3 -68 4 -68 28 0 24 2 25 78 28 59 2 77 6
77 17 0 12 -20 15 -105 15 l-106 0 3 -112z"/>
<path d="M4002 759 c3 -85 5 -92 31 -115 24 -20 39 -24 93 -24 113 0 133 21
134 143 0 86 0 87 -25 87 -25 0 -25 -2 -25 -77 0 -84 -4 -94 -37 -112 -30 -15
-64 -14 -90 4 -18 12 -22 29 -28 100 -7 82 -8 85 -32 85 l-25 0 4 -91z"/>
<path d="M4335 757 c-11 -141 -18 -132 108 -135 102 -3 107 -2 107 18 0 18 -6
20 -80 20 l-80 0 0 95 c0 94 0 95 -24 95 -23 0 -24 -3 -31 -93z"/>
<path d="M4602 738 l3 -113 105 0 c92 0 105 2 108 18 3 15 -6 17 -82 17 l-86
0 0 95 c0 95 0 95 -25 95 l-26 0 3 -112z"/>
<path d="M5310 836 c0 -11 14 -16 48 -18 l47 -3 1 -95 0 -95 27 -3 26 -3 3 98
3 98 43 0 c33 0 42 4 42 18 0 15 -12 17 -120 17 -98 0 -120 -3 -120 -14z"/>
<path d="M6980 735 l0 -116 108 3 c87 2 107 6 107 18 0 12 -17 16 -82 18 l-83
3 0 29 0 30 75 0 c68 0 75 2 75 20 0 18 -7 20 -76 20 l-75 0 3 28 c3 27 3 27
81 26 69 -1 77 1 77 17 0 17 -9 19 -105 19 l-105 0 0 -115z"/>
<path d="M7245 833 c4 -10 16 -40 27 -67 10 -26 30 -70 44 -98 23 -44 28 -49
55 -46 28 3 35 11 84 116 l54 112 -28 0 c-25 0 -31 -8 -66 -85 -21 -47 -41
-85 -46 -85 -4 0 -17 25 -28 56 -36 95 -49 114 -77 114 -21 0 -25 -3 -19 -17z"/>
<path d="M7562 738 l3 -113 103 -3 c97 -3 102 -2 102 18 0 18 -6 20 -80 20
l-80 0 0 30 0 29 73 3 c56 2 72 6 72 18 0 12 -16 16 -73 18 -73 3 -73 3 -70
30 3 30 1 29 93 31 51 1 65 4 65 16 0 12 -18 15 -105 15 l-106 0 3 -112z"/>
<path d="M7830 735 l0 -115 105 0 c98 0 105 1 105 20 0 17 -8 19 -77 22 l-78
3 0 93 0 92 -27 0 -28 0 0 -115z"/>
<path d="M4850 715 c0 -24 3 -25 54 -25 35 0 56 5 59 13 9 27 -6 37 -59 37
-51 0 -54 -1 -54 -25z"/>
</g>
</svg>
